<?xml version="1.0" encoding="UTF-8" standalone="no"?>
<!-- Created with Inkscape (http://www.inkscape.org/) -->

<svg
   xmlns:dc="http://purl.org/dc/elements/1.1/"
   xmlns:cc="http://creativecommons.org/ns#"
   xmlns:rdf="http://www.w3.org/1999/02/22-rdf-syntax-ns#"
   xmlns:svg="http://www.w3.org/2000/svg"
   xmlns="http://www.w3.org/2000/svg"
   xmlns:sodipodi="http://sodipodi.sourceforge.net/DTD/sodipodi-0.dtd"
   xmlns:inkscape="http://www.inkscape.org/namespaces/inkscape"
   width="94mm"
   height="60mm"
   viewBox="0 0 94 60"
   version="1.1"
   id="SVGRoot"
   inkscape:version="0.92.5 (2060ec1f9f, 2020-04-08)"
   sodipodi:docname="modern-left-text.svg">
  <defs
     id="defs3036" />
  <sodipodi:namedview
     id="base"
     pagecolor="#ffffff"
     bordercolor="#666666"
     borderopacity="1.0"
     inkscape:pageopacity="0.0"
     inkscape:pageshadow="2"
     inkscape:zoom="1"
     inkscape:cx="116.77127"
     inkscape:cy="161.16893"
     inkscape:document-units="mm"
     inkscape:current-layer="layer1"
     showgrid="false"
     inkscape:window-width="1366"
     inkscape:window-height="704"
     inkscape:window-x="0"
     inkscape:window-y="27"
     inkscape:window-maximized="1" />
  <metadata
     id="metadata3039">
    <rdf:RDF>
      <cc:Work
         rdf:about="">
        <dc:format>image/svg+xml</dc:format>
        <dc:type
           rdf:resource="http://purl.org/dc/dcmitype/StillImage" />
        <dc:title></dc:title>
      </cc:Work>
    </rdf:RDF>
  </metadata>
  <g
     inkscape:label="Layer 1"
     inkscape:groupmode="layer"
     id="layer1"
     transform="translate(0,8)">
    <path
       inkscape:connector-curvature="0"
       style="opacity:1;fill:#fffff7;fill-opacity:1;stroke:#ff3b17;stroke-width:0.34730786;stroke-miterlimit:4;stroke-dasharray:none;stroke-opacity:1"
       d="m 3.7026306,-7.3566121 c -1.662,0 -2.99981,1.3378099 -2.99981,2.9998199 V 48.29736 c 0,1.661998 1.33781,2.999819 2.99981,2.999819 H 90.612561 c 1.662012,0 2.999822,-1.337821 2.999822,-2.999819 V -4.3567922 c 0,-1.66201 -1.33781,-2.9998199 -2.999822,-2.9998199 z"
       id="path1264-2-9"
       inkscape:export-filename="/home/tyro/code/www/nearfield/cards/front2png.png"
       inkscape:export-xdpi="96"
       inkscape:export-ydpi="96" />
    <rect
       y="9.9177132"
       x="57.188774"
       height="24.105133"
       width="24.105133"
       id="rect1543"
       style="opacity:1;fill:#fffff7;fill-opacity:1;stroke:#ff3b17;stroke-width:0.89486665;stroke-miterlimit:4;stroke-dasharray:none;stroke-dashoffset:39.22031021;stroke-opacity:1" />
    <rect
       style="opacity:1;fill:#fffff7;fill-opacity:1;stroke:none;stroke-width:0.02518849;stroke-miterlimit:4;stroke-dasharray:none;stroke-dashoffset:39.22031021;stroke-opacity:1"
       id="positioner"
       width="55.808743"
       height="24.594601"
       x="0.88142991"
       y="9.9177132"
       inkscape:label="#rect2925" />
    <text
       xml:space="preserve"
       style="font-style:normal;font-variant:normal;font-weight:normal;font-stretch:normal;font-size:7.01307774px;line-height:1.25;font-family:'Khmer OS';-inkscape-font-specification:'Khmer OS';letter-spacing:0px;word-spacing:0px;fill:#ff3b17;fill-opacity:1;stroke:none;stroke-width:0.29221156"
       x="14.035395"
       y="18.731741"
       id="text3673rel"
       inkscape:label="#text3673"><tspan
         sodipodi:role="line"
         x="14.035395"
         y="18.731741"
         id="tspan3671"
         style="stroke-width:0.29221156"><tspan
           x="14.035395"
           y="18.731741"
           id="tspan3669"
           style="stroke-width:0.29221156">John Doe</tspan></tspan></text>
    <text
       xml:space="preserve"
       style="font-style:normal;font-variant:normal;font-weight:normal;font-stretch:normal;font-size:4.03057814px;line-height:1.25;font-family:'Khmer OS';-inkscape-font-specification:'Khmer OS';letter-spacing:0px;word-spacing:0px;fill:#10294b;fill-opacity:1;stroke:none;stroke-width:0.16794075"
       x="20.752197"
       y="24.509066"
       id="text3667rel"
       inkscape:label="#text3667-relative"
       onclick="alert(&quot;bitch&quot;)"><tspan
         sodipodi:role="line"
         x="20.752197"
         y="24.509066"
         id="tspan3665"
         style="stroke-width:0.16794075"><tspan
           x="20.752197"
           y="24.509066"
           id="tspan3663"
           style="stroke-width:0.16794075">Manager</tspan></tspan></text>
    <text
       xml:space="preserve"
       style="font-style:normal;font-variant:normal;font-weight:normal;font-stretch:normal;font-size:2.09090638px;line-height:1.25;font-family:'Khmer OS';-inkscape-font-specification:'Khmer OS';letter-spacing:0px;word-spacing:0px;fill:#10294b;fill-opacity:1;stroke:none;stroke-width:0.0871211"
       x="22.826004"
       y="29.157154"
       id="text3661rel"
       inkscape:label="#text3661-relative"><tspan
         sodipodi:role="line"
         x="22.826004"
         y="29.157154"
         id="tspan3659"
         style="stroke-width:0.0871211"><tspan
           x="22.826004"
           y="29.157154"
           id="tspan3657"
           style="stroke-width:0.0871211">he / him / his</tspan></tspan></text>
    <g
       id="g2961"
       transform="translate(-373.78462,-237.23781)">
      <path
         inkscape:connector-curvature="0"
         id="path2842-5"
         d="m 432.63049,266.69286 v -2.91073 h 2.94538 2.94539 v 2.91073 2.91073 h -2.94539 -2.94538 z m 4.98983,0.0346 v -2.04444 h -2.04445 -2.04444 v 2.04444 2.04444 h 2.04444 2.04445 z m -3.32655,0 v -1.28211 h 1.2821 1.28211 v 1.28211 1.28211 h -1.28211 -1.2821 z m 4.98982,0.79698 v -2.07909 h 0.41582 0.41582 v -0.38117 -0.38116 h -0.41582 -0.41582 v -0.83164 -0.83164 h -0.83164 -0.83163 v -0.45047 -0.45047 h 0.41581 0.41582 v -0.38117 -0.38116 h -0.41582 -0.41581 v -0.41582 -0.41582 h -0.41582 -0.41582 v -0.41582 -0.41582 h -0.83164 -0.83164 v -0.41582 -0.41582 h -0.79698 -0.79699 v 0.38117 0.38117 h 0.41582 0.41582 v 0.41582 0.41582 h 0.41582 0.41582 v 0.41581 0.41582 h 0.41582 0.41581 v 0.86629 0.86629 h -0.86628 -0.86629 v -0.45047 -0.45047 h 0.41581 0.41582 v -0.38117 -0.38116 h -0.41582 -0.41581 v -0.41582 -0.41582 h -0.38117 -0.38117 v 1.24746 1.24745 h -0.45047 -0.45047 v -2.11374 -2.11375 h 0.41582 0.41582 v -0.83164 -0.83163 h 0.45047 0.45047 v 0.41581 0.41582 h 1.24746 1.24745 v 0.41582 0.41582 h 0.83164 0.83164 v 0.41582 0.41582 h 0.79698 0.79699 v -0.41582 -0.41582 h 0.83164 0.83163 v -0.38117 -0.38116 h -0.41582 -0.41581 v -0.83164 -0.83164 h -0.79699 -0.79699 v 0.38117 0.38117 h 0.41582 0.41582 v 0.45047 0.45047 h -0.45047 -0.45047 v -0.41582 -0.41582 h -0.38117 -0.38116 v 0.41582 0.41582 h -0.45047 -0.45047 v -0.45047 -0.45047 h 0.41581 0.41582 v -0.38117 -0.38117 h -0.41582 -0.41581 v -0.45047 -0.45047 h 1.24745 1.24746 v -0.38117 -0.38116 h -0.41582 -0.41582 v -0.86629 -0.86629 h 0.41582 0.41582 v -0.38117 -0.38117 h -0.41582 -0.41582 v -0.45047 -0.45047 h 1.28211 1.28211 v 0.45047 0.45047 h -0.41582 -0.41582 v 0.79699 0.79699 h 0.41582 0.41582 v 0.41581 0.41582 h 0.38116 0.38117 v -0.83163 -0.83164 h 0.83164 0.83164 v -0.41582 -0.41582 h 0.41581 0.41582 v -0.41582 -0.41582 h 0.86629 0.86629 v 0.45047 0.45047 h -0.83164 -0.83163 v 1.24746 1.24746 h -0.41582 -0.41582 v 0.38116 0.38117 h 0.79699 0.79698 v -0.83164 -0.83163 h 0.45047 0.45047 v 0.83163 0.83164 h 0.41582 0.41582 v 0.83164 0.83164 h 0.38117 0.38116 v -0.83164 -0.83164 h 0.45047 0.45047 v 0.41582 0.41582 h 0.38117 0.38117 v -0.41582 -0.41582 h 0.45047 0.45047 v 0.45047 0.45047 H 450.58 450.16418 v 0.83164 0.83164 h -0.45047 -0.45047 v -0.41582 -0.41582 h -0.38117 -0.38116 v 0.41582 0.41582 h -0.83164 -0.83164 v 0.83163 0.83164 h -0.41582 -0.41582 v 0.41582 0.41582 h -0.41581 -0.41582 v 0.41582 0.41582 h -0.41582 -0.41582 v 0.38116 0.38117 h 0.79699 0.79698 v -0.41582 -0.41582 h 0.41582 0.41582 v -0.41582 -0.41581 h 0.83164 0.83163 v -0.38117 -0.38117 h -0.41582 -0.41581 v -0.45047 -0.45047 h 1.69792 1.69793 v 0.45047 0.45047 H 450.58 450.16418 v 0.83164 0.83164 h -0.45047 -0.45047 v -0.41582 -0.41582 h -0.38117 -0.38116 v 0.41582 0.41582 h -0.83164 -0.83164 v 0.38116 0.38117 h 2.0791 2.07909 v 0.45047 0.45047 H 450.58 450.16418 v 0.79699 0.79698 h 0.38117 0.38117 v -0.41582 -0.41581 h 0.83163 0.83164 v -0.79699 -0.79699 h -0.41582 -0.41582 v -0.41581 -0.41582 h -0.41582 -0.41581 v -0.45047 -0.45047 h 0.41581 0.41582 v -0.83164 -0.83164 h 0.83164 0.83164 v 0.45047 0.45047 h -0.38117 -0.38117 v 0.41582 0.41582 h -0.41581 -0.41582 v 0.38117 0.38116 h 0.79698 0.79699 v 1.69793 1.69793 h -1.21281 -1.2128 v 0.83163 0.83164 H 450.58 450.16418 v 0.79699 0.79698 h 0.38117 0.38117 v -0.41582 -0.41581 h 0.41581 0.41582 v -0.41582 -0.41582 h 0.83164 0.83164 v 0.86629 0.86629 h -0.38117 -0.38117 v 0.38116 0.38117 h 0.38117 0.38117 v 0.41582 0.41582 h -1.24746 -1.24745 v -0.38117 -0.38117 h -2.04445 -2.04444 v 0.38117 0.38117 h -0.45047 -0.45047 v -0.83164 -0.83164 h 0.41582 0.41582 v -0.38116 -0.38117 h -0.79699 -0.79698 v 1.2128 1.21281 h -0.45047 -0.45047 v -1.62862 -1.62863 h -0.38117 -0.38117 v 0.41582 0.41582 h -0.41582 -0.41582 v 0.79699 0.79698 h 0.41582 0.41582 v 0.41582 0.41582 h -0.45047 -0.45047 v -0.38117 -0.38117 h -0.38117 -0.38116 v 0.38117 0.38117 h -0.45047 -0.45047 v -0.38117 -0.38117 h -0.38117 -0.38117 v 0.38117 0.38117 h -0.45047 -0.45047 z m 2.49491,0.45048 v -0.79699 h -0.41582 -0.41581 v -0.45047 -0.45047 h 0.45047 0.45047 v 0.41582 0.41582 h 0.38116 0.38117 v -0.41582 -0.41582 h 0.41582 0.41582 v -1.21281 -1.2128 h -0.83164 -0.83164 v -0.41582 -0.41582 h -0.38116 -0.38117 v 0.41582 0.41582 h -0.41582 -0.41582 v 0.38117 0.38116 h 1.24746 1.24745 v 0.45047 0.45047 h -1.24745 -1.24746 v 1.21281 1.2128 h 0.41582 0.41582 v 0.41582 0.41582 h 0.38117 0.38116 z m 9.97965,0.41581 v -0.38116 h -0.38116 -0.38117 v 0.38116 0.38117 h 0.38117 0.38116 z m -2.49491,-1.24745 v -0.79699 h -1.2128 -1.21281 v 0.38117 0.38117 h 0.83164 0.83164 v 0.41581 0.41582 h 0.38116 0.38117 z m 3.32655,0.41582 v -0.38117 h -0.38117 -0.38116 v 0.38117 0.38116 h 0.38116 0.38117 z m -6.6531,-2.0791 v -0.79698 h -0.41582 -0.41582 v -0.41582 -0.41582 h -0.38116 -0.38117 v 0.79699 0.79698 h 0.41582 0.41582 v 0.41582 0.41582 h 0.38116 0.38117 z m 3.32655,-1.24745 v -1.21281 h -1.2128 -1.21281 v 1.21281 1.2128 h 1.21281 1.2128 z m -1.66327,0 v -0.45047 h 0.45047 0.45047 v 0.45047 0.45047 h -0.45047 -0.45047 z m -3.32655,-0.83164 v -0.38117 h -0.38117 -0.38117 v 0.38117 0.38117 h 0.38117 0.38117 z m -3.32655,-0.83164 v -0.38112 h -0.41582 -0.41582 v -0.45047 -0.45047 h 1.24745 1.24746 v -0.41582 -0.41581 h 1.24746 1.24745 v -0.38117 -0.38117 h -0.83163 -0.83164 v -0.45047 -0.45047 h 1.24745 1.24746 v -0.41582 -0.41582 h 0.41582 0.41582 v -0.38116 -0.38117 h -0.41582 -0.41582 v -0.41582 -0.41582 h -1.2128 -1.21281 v 0.38117 0.38117 h 0.83164 0.83164 v 0.45047 0.45047 h -0.86629 -0.86629 v -0.41582 -0.41582 h -0.79699 -0.79698 v 0.38117 0.38116 h 0.41582 0.41581 v 0.45047 0.45047 h -0.41581 -0.41582 v 0.41582 0.41582 h -0.83164 -0.83164 v 0.41582 0.41582 h -0.83164 -0.83163 v 0.38117 0.38116 h 0.41582 0.41581 v 0.83164 0.83164 h 0.79699 0.79699 z m 1.66327,0 v -0.38117 h -0.38117 -0.38116 v 0.38117 0.38117 h 0.38116 0.38117 z m 0.83164,-0.83164 v -0.38116 h -0.38117 -0.38117 v 0.38116 0.38117 h 0.38117 0.38117 z m -4.98983,-1.66327 v -0.38117 h -0.38116 -0.38117 v 0.38117 0.38117 h 0.38117 0.38116 z m 4.98983,-4.57401 v -0.79698 h -0.38117 -0.38117 v 0.41582 0.41581 h -0.83163 -0.83164 v 0.38117 0.38117 h 1.2128 1.21281 z m 3.32655,0.41582 V 255.535 h -0.38117 -0.38117 v 0.38117 0.38117 h 0.38117 0.38117 z m -5.82146,-1.66327 v -0.38117 h -0.38117 -0.38117 v 0.38117 0.38116 h 0.38117 0.38117 z m 3.32655,0 v -0.38117 h -0.38117 -0.38117 v 0.38117 0.38116 h 0.38117 0.38117 z m 6.6531,3.32655 v -0.45047 h 0.45047 0.45047 v 0.45047 0.45047 h -0.45047 -0.45047 z m 1.66327,-0.79699 v -0.41582 h -0.41582 -0.41582 v -0.45047 -0.45047 h 0.45047 0.45047 v 0.41582 0.41582 h 0.38117 0.38117 v 0.45047 0.45047 h -0.41582 -0.41582 z m -19.9593,-0.86629 v -0.45047 h 2.11375 2.11374 v 0.45047 0.45047 h -2.11374 -2.11375 z m 0,-4.15819 v -2.94538 h 2.94538 2.94539 v 2.94538 2.94539 h -2.94539 -2.94538 z m 4.98983,0 v -2.04444 h -2.04445 -2.04444 v 2.04444 2.04445 h 2.04444 2.04445 z m -3.32655,0 v -1.2821 h 1.2821 1.28211 v 1.2821 1.28211 h -1.28211 -1.2821 z m 13.3062,0 v -2.94538 h 2.91073 2.91073 v 2.94538 2.94539 h -2.91073 -2.91073 z m 4.98982,0 v -2.04444 h -2.04444 -2.04444 v 2.04444 2.04445 h 2.04444 2.04444 z m -3.32655,0 v -1.2821 h 1.28211 1.28211 v 1.2821 1.28211 h -1.28211 -1.28211 z m -6.6531,-1.66327 v -1.28211 h 0.45047 0.45047 v 0.41582 0.41582 h 0.83164 0.83164 v 0.45047 0.45047 h -0.41582 -0.41582 v 0.41582 0.41582 h -0.86629 -0.86629 z m -3.32655,0 v -0.45047 h 0.45047 0.45047 v 0.45047 0.45047 h -0.45047 -0.45047 z m 1.66328,0 v -0.45047 h 0.45047 0.45047 v 0.45047 0.45047 h -0.45047 -0.45047 z m 4.98982,-0.83164 v -0.45047 h 0.45047 0.45047 v 0.45047 0.45047 h -0.45047 -0.45047 z"
         style="fill:#10294b;fill-opacity:1;stroke-width:0.06930313" />
      <g
         transform="matrix(0.69177401,0,0,0.69177401,272.89616,62.079428)"
         id="g2868-6-9">
        <g
           transform="matrix(0.54166669,0,0,0.54166669,111.04702,132.27926)"
           id="g2863-7-7">
          <circle
             style="opacity:1;fill:#fffff7;fill-opacity:1;stroke:none;stroke-width:0.82299995;stroke-miterlimit:4;stroke-dasharray:none;stroke-dashoffset:39.22031021;stroke-opacity:1"
             id="path2859-6-8"
             cx="249.01961"
             cy="281.87411"
             r="6.7351923" />
          <path
             inkscape:connector-curvature="0"
             id="I-4-0-5"
             d="m 246.28116,277.72966 h 2.73846 2.73846 v 0.85598 0.86039 l -0.75384,-0.004 -0.58017,0.004 -0.0115,4.86272 1.34551,-0.002 v 0.85598 0.85582 h -2.73846 -2.73847 v -0.85614 -0.85314 h 1.34536 v -4.86288 l -0.59166,-0.004 h -0.7537 v -0.85582 z"
             style="opacity:1;fill:#ff3b17;fill-opacity:1;stroke:#ff3b17;stroke-width:0.10592641;stroke-miterlimit:4;stroke-dasharray:none;stroke-opacity:1"
             inkscape:label="#rect974-7-67-8-3-4-35-9-8-8-0-7-4"
             inkscape:transform-center-x="-10.49916"
             inkscape:transform-center-y="9.2440537" />
        </g>
      </g>
    </g>
  </g>
</svg>
