<?xml version="1.0" encoding="UTF-8" standalone="no"?>
<!-- Created with Inkscape (http://www.inkscape.org/) -->

<svg
   xmlns:dc="http://purl.org/dc/elements/1.1/"
   xmlns:cc="http://creativecommons.org/ns#"
   xmlns:rdf="http://www.w3.org/1999/02/22-rdf-syntax-ns#"
   xmlns:svg="http://www.w3.org/2000/svg"
   xmlns="http://www.w3.org/2000/svg"
   xmlns:sodipodi="http://sodipodi.sourceforge.net/DTD/sodipodi-0.dtd"
   xmlns:inkscape="http://www.inkscape.org/namespaces/inkscape"
   width="85mm"
   height="55mm"
   viewBox="0 0 85 55"
   version="1.1"
   id="svg2441"
   inkscape:version="0.92.5 (2060ec1f9f, 2020-04-08)"
   sodipodi:docname="onecard.svg">
  <defs
     id="defs2435" />
  <sodipodi:namedview
     id="base"
     pagecolor="#ffffff"
     bordercolor="#666666"
     borderopacity="1.0"
     inkscape:pageopacity="0.0"
     inkscape:pageshadow="2"
     inkscape:zoom="1.9221636"
     inkscape:cx="107.33077"
     inkscape:cy="168.34866"
     inkscape:document-units="mm"
     inkscape:current-layer="layer1"
     showgrid="false"
     inkscape:window-width="1366"
     inkscape:window-height="704"
     inkscape:window-x="0"
     inkscape:window-y="27"
     inkscape:window-maximized="1"
     units="mm" />
  <metadata
     id="metadata2438">
    <rdf:RDF>
      <cc:Work
         rdf:about="">
        <dc:format>image/svg+xml</dc:format>
        <dc:type
           rdf:resource="http://purl.org/dc/dcmitype/StillImage" />
        <dc:title />
      </cc:Work>
    </rdf:RDF>
  </metadata>
  <g
     inkscape:label="Layer 1"
     inkscape:groupmode="layer"
     id="layer1"
     transform="translate(0,-242)">
    <path
       inkscape:connector-curvature="0"
       style="opacity:1;fill:#fffff7;fill-opacity:1;stroke:#ff3b17;stroke-width:0.28455129;stroke-miterlimit:4;stroke-dasharray:none;stroke-opacity:1"
       d="m 8.1323175,245.79694 c -1.361686,0 -2.4577614,1.09608 -2.4577614,2.45777 v 43.13984 c 0,1.36169 1.0960754,2.45777 2.4577614,2.45777 H 79.338118 c 1.361694,0 2.457769,-1.09608 2.457769,-2.45777 v -43.13984 c 0,-1.36169 -1.096075,-2.45777 -2.457769,-2.45777 z"
       id="path1264-2-9-6" />
    <rect
       y="260.73987"
       x="15.442483"
       height="18.169514"
       width="18.169514"
       id="rect1543-1"
       style="opacity:1;fill:#fffff7;fill-opacity:1;stroke:#ff3b17;stroke-width:0.67451566;stroke-miterlimit:4;stroke-dasharray:none;stroke-dashoffset:39.22031021;stroke-opacity:1" />
    <path
       style="fill:none;stroke:#ff3b17;stroke-width:0.30569345px;stroke-linecap:butt;stroke-linejoin:miter;stroke-opacity:1"
       d="m 43.735222,255.85354 c 0,62.86991 0,0 0,0 z"
       id="path1996"
       inkscape:connector-curvature="0" />
    <path
       style="fill:#10294b;fill-opacity:1;stroke-width:0.05678045"
       d="m 16.010171,275.95693 v -2.38477 h 2.413167 2.413175 v 2.38477 2.38478 h -2.413175 -2.413167 z m 4.088196,0.0283 v -1.67502 h -1.675029 -1.675022 v 1.67502 1.67502 h 1.675022 1.675029 z m -2.725461,0 v -1.05044 h 1.050432 1.05044 v 1.05044 1.05044 h -1.05044 -1.050432 z m 4.088188,0.65297 v -1.70341 h 0.340684 0.340683 v -0.31229 -0.31229 h -0.340683 -0.340684 v -0.68137 -0.68136 h -0.681368 -0.681359 v -0.36908 -0.36907 h 0.340676 0.340683 v -0.31229 -0.31229 h -0.340683 -0.340676 v -0.34068 -0.34069 H 19.757684 19.417 v -0.34068 -0.34069 h -0.681368 -0.681367 v -0.34068 -0.34068 h -0.65297 -0.652979 v 0.31229 0.3123 H 17.089 17.429684 v 0.34068 0.34068 h 0.340683 0.340684 v 0.34068 0.34068 h 0.340684 0.340675 v 0.70976 0.70976 h -0.709748 -0.709756 v -0.36908 -0.36907 h 0.340675 0.340684 v -0.31229 -0.31229 h -0.340684 -0.340675 v -0.34068 -0.34069 h -0.312295 -0.312295 v 1.02205 1.02205 h -0.369072 -0.369073 v -1.7318 -1.73181 h 0.340684 0.340684 v -0.68137 -0.68136 h 0.369072 0.369073 v 0.34068 0.34068 h 1.022051 1.022043 v 0.34069 0.34068 h 0.681367 0.681368 v 0.34068 0.34069 h 0.65297 0.652978 v -0.34069 -0.34068 h 0.681368 0.681359 v -0.3123 -0.31228 h -0.340684 -0.340675 v -0.68137 -0.68137 H 22.17085 21.517872 v 0.3123 0.31229 h 0.340683 0.340684 v 0.36908 0.36907 h -0.369073 -0.369072 v -0.34069 -0.34068 h -0.312295 -0.312286 v 0.34068 0.34069 H 20.46744 20.098367 v -0.36907 -0.36908 h 0.340676 0.340683 v -0.31229 -0.3123 h -0.340683 -0.340676 v -0.36907 -0.36907 h 1.022043 1.022051 v -0.3123 -0.31228 h -0.340683 -0.340684 v -0.70976 -0.70976 h 0.340684 0.340683 v -0.31229 -0.3123 h -0.340683 -0.340684 v -0.36907 -0.36907 h 1.05044 1.05044 v 0.36907 0.36907 H 23.22129 22.880606 v 0.65298 0.65298 h 0.340684 0.340684 v 0.34068 0.34068 h 0.312286 0.312295 v -0.68136 -0.68137 h 0.681368 0.681367 v -0.34068 -0.34068 h 0.340675 0.340684 v -0.34069 -0.34068 h 0.709756 0.709757 v 0.36907 0.36907 h -0.681368 -0.681359 v 1.02206 1.02205 h -0.340683 -0.340684 v 0.31228 0.3123 h 0.652978 0.652971 v -0.68137 -0.68136 h 0.369072 0.369073 v 0.68136 0.68137 h 0.340683 0.340684 v 0.68137 0.68136 h 0.312295 0.312286 v -0.68136 -0.68137 h 0.369073 0.369073 v 0.34068 0.34069 h 0.312294 0.312295 v -0.34069 -0.34068 h 0.369073 0.369073 v 0.36907 0.36907 h -0.340684 -0.340684 v 0.68137 0.68137 H 30.00655 29.637478 v -0.34069 -0.34068 h -0.312295 -0.312286 v 0.34068 0.34069 h -0.681368 -0.681367 v 0.68136 0.68136 h -0.340684 -0.340684 v 0.34069 0.34068 h -0.340675 -0.340684 v 0.34069 0.34068 h -0.340683 -0.340684 v 0.31229 0.31229 h 0.652978 0.652971 v -0.34068 -0.34069 h 0.340683 0.340684 v -0.34068 -0.34068 h 0.681367 0.681359 v -0.31229 -0.3123 h -0.340683 -0.340676 v -0.36907 -0.36907 h 1.391116 1.391124 v 0.36907 0.36907 h -0.340684 -0.340684 v 0.68137 0.68137 H 30.00655 29.637478 v -0.34068 -0.34069 h -0.312295 -0.312286 v 0.34069 0.34068 h -0.681368 -0.681367 v 0.31229 0.31229 h 1.703418 1.703411 v 0.36907 0.36908 h -0.340684 -0.340684 v 0.65297 0.65297 h 0.312295 0.312295 v -0.34068 -0.34067 h 0.681359 0.681367 v -0.65298 -0.65298 h -0.340683 -0.340684 v -0.34068 -0.34068 h -0.340684 -0.340675 v -0.36907 -0.36908 h 0.340675 0.340684 v -0.68136 -0.68137 h 0.681367 0.681368 v 0.36907 0.36907 h -0.312295 -0.312295 v 0.34069 0.34068 h -0.340675 -0.340684 v 0.3123 0.31228 h 0.65297 0.652979 v 1.39113 1.39112 h -0.993663 -0.993653 v 0.68136 0.68137 h -0.340684 -0.340684 v 0.65298 0.65297 h 0.312295 0.312295 v -0.34069 -0.34067 h 0.340675 0.340684 v -0.34069 -0.34068 h 0.681367 0.681368 v 0.70976 0.70975 h -0.312295 -0.312295 v 0.31229 0.31229 h 0.312295 0.312295 v 0.34069 0.34068 h -1.022051 -1.022043 v -0.31229 -0.3123 h -1.67503 -1.675021 v 0.3123 0.31229 h -0.369073 -0.369072 v -0.68137 -0.68136 h 0.340683 0.340684 v -0.31229 -0.3123 h -0.652979 -0.65297 v 0.99366 0.99366 H 25.918363 25.54929 v -1.33434 -1.33434 H 25.236995 24.9247 v 0.34068 0.34068 h -0.340683 -0.340684 v 0.65298 0.65297 h 0.340684 0.340683 v 0.34069 0.34068 h -0.369072 -0.369073 v -0.31229 -0.3123 H 23.87426 23.561974 v 0.3123 0.31229 h -0.369073 -0.369072 v -0.31229 -0.3123 h -0.312295 -0.312295 v 0.3123 0.31229 h -0.369073 -0.369072 z m 2.044094,0.36908 v -0.65298 h -0.340684 -0.340675 v -0.36907 -0.36907 h 0.369072 0.369073 v 0.34068 0.34069 h 0.312286 0.312295 v -0.34069 -0.34068 h 0.340684 0.340684 v -0.99366 -0.99366 h -0.681368 -0.681367 v -0.34068 -0.34068 h -0.312287 -0.312295 v 0.34068 0.34068 h -0.340683 -0.340684 v 0.3123 0.31228 h 1.022051 1.022043 v 0.36908 0.36907 H 23.22129 22.199239 v 0.99366 0.99366 h 0.340684 0.340683 v 0.34068 0.34068 h 0.312295 0.312287 z m 8.176384,0.34068 v -0.31229 h -0.312287 -0.312294 v 0.31229 0.31229 h 0.312294 0.312287 z m -2.044094,-1.02204 v -0.65298 h -0.993654 -0.993662 v 0.31229 0.3123 h 0.681367 0.681368 v 0.34067 0.34069 h 0.312286 0.312295 z m 2.725461,0.34068 v -0.3123 h -0.312295 -0.312286 v 0.3123 0.31229 h 0.312286 0.312295 z m -5.450922,-1.70342 v -0.65297 h -0.340684 -0.340684 v -0.34068 -0.34069 h -0.312286 -0.312295 v 0.65298 0.65297 h 0.340684 0.340683 v 0.34069 0.34068 h 0.312287 0.312295 z m 2.725461,-1.02204 v -0.99366 h -0.993654 -0.993662 v 0.99366 0.99365 h 0.993662 0.993654 z m -1.362727,0 v -0.36907 h 0.369073 0.369073 v 0.36907 0.36907 h -0.369073 -0.369073 z m -2.725461,-0.68137 v -0.31229 H 25.236995 24.9247 v 0.31229 0.3123 h 0.312295 0.312295 z m -2.725461,-0.68137 v -0.31225 h -0.340684 -0.340684 v -0.36907 -0.36908 h 1.022043 1.022051 v -0.34068 -0.34067 h 1.022051 1.022043 v -0.3123 -0.31229 H 25.54929 24.867923 v -0.36908 -0.36907 h 1.022042 1.022052 v -0.34068 -0.34069 h 0.340683 0.340684 v -0.31228 -0.3123 H 27.2527 26.912017 v -0.34068 -0.34069 H 25.918363 24.9247 v 0.3123 0.31229 h 0.681368 0.681367 v 0.36908 0.36907 h -0.709756 -0.709756 v -0.34068 -0.34069 h -0.652979 -0.65297 v 0.3123 0.31228 h 0.340684 0.340675 v 0.36908 0.36907 h -0.340675 -0.340684 v 0.34068 0.34069 h -0.681368 -0.681367 v 0.34068 0.34068 h -0.681367 -0.681359 v 0.3123 0.31228 h 0.340683 0.340676 v 0.68137 0.68137 h 0.652978 0.652979 z m 1.362726,0 v -0.31229 H 23.87426 23.561974 v 0.31229 0.3123 h 0.312286 0.312295 z m 0.681368,-0.68136 v -0.31229 h -0.312295 -0.312295 v 0.31229 0.31229 h 0.312295 0.312295 z m -4.088197,-1.36273 v -0.3123 H 20.46744 20.155145 v 0.3123 0.31229 h 0.312295 0.312286 z m 4.088197,-3.74751 v -0.65297 h -0.312295 -0.312295 v 0.34068 0.34068 h -0.681359 -0.681368 v 0.31229 0.3123 h 0.993654 0.993663 z m 2.725461,0.34068 v -0.31229 h -0.312295 -0.312295 v 0.31229 0.3123 h 0.312295 0.312295 z m -4.769555,-1.36273 v -0.31229 h -0.312295 -0.312295 v 0.31229 0.31229 h 0.312295 0.312295 z m 2.725461,0 v -0.31229 H 25.236995 24.9247 v 0.31229 0.31229 h 0.312295 0.312295 z m 5.450923,2.72547 v -0.36908 h 0.369072 0.369073 v 0.36908 0.36907 h -0.369073 -0.369072 z m 1.362726,-0.65298 v -0.34069 h -0.340683 -0.340684 v -0.36907 -0.36907 h 0.369072 0.369073 v 0.34068 0.34069 h 0.312295 0.312295 v 0.36907 0.36907 h -0.340684 -0.340684 z m -16.352768,-0.70976 v -0.36907 h 1.731808 1.731799 v 0.36907 0.36907 h -1.731799 -1.731808 z m 0,-3.40683 v -2.41316 h 2.413167 2.413175 v 2.41316 2.41318 h -2.413175 -2.413167 z m 4.088196,0 v -1.67502 h -1.675029 -1.675022 v 1.67502 1.67503 h 1.675022 1.675029 z m -2.725461,0 v -1.05043 h 1.050432 1.05044 v 1.05043 1.05044 h -1.05044 -1.050432 z m 10.901845,0 v -2.41316 h 2.384778 2.384778 v 2.41316 2.41318 h -2.384778 -2.384778 z m 4.088188,0 v -1.67502 h -1.675021 -1.675021 v 1.67502 1.67503 h 1.675021 1.675021 z m -2.725461,0 v -1.05043 h 1.05044 1.05044 v 1.05043 1.05044 h -1.05044 -1.05044 z m -5.450923,-1.36272 v -1.05044 h 0.369073 0.369072 v 0.34068 0.34068 h 0.681368 0.681367 v 0.36908 0.36907 h -0.340683 -0.340684 v 0.34068 0.34069 h -0.709756 -0.709757 z m -2.725461,0 v -0.36908 h 0.369072 0.369073 v 0.36908 0.36907 h -0.369073 -0.369072 z m 1.362735,0 v -0.36908 h 0.369072 0.369073 v 0.36908 0.36907 h -0.369073 -0.369072 z m 4.088188,-0.68137 v -0.36907 h 0.369072 0.369073 v 0.36907 0.36907 h -0.369073 -0.369072 z"
       id="path2842-3"
       inkscape:connector-curvature="0" />
    <g
       id="g2868-6-3"
       transform="matrix(0.56677438,0,0,0.56677438,-114.86108,108.31599)">
      <g
         id="g2863-7-8"
         transform="matrix(0.54166669,0,0,0.54166669,111.04702,132.27926)">
        <circle
           r="6.7351923"
           cy="281.87411"
           cx="249.01961"
           id="path2859-6-3"
           style="opacity:1;fill:#fffff7;fill-opacity:1;stroke:none;stroke-width:0.82299995;stroke-miterlimit:4;stroke-dasharray:none;stroke-dashoffset:39.22031021;stroke-opacity:1" />
        <path
           inkscape:transform-center-y="9.2440537"
           inkscape:transform-center-x="-10.49916"
           inkscape:label="#rect974-7-67-8-3-4-35-9-8-8-0-7-4"
           style="opacity:1;fill:#ff3b17;fill-opacity:1;stroke:#ff3b17;stroke-width:0.10592641;stroke-miterlimit:4;stroke-dasharray:none;stroke-opacity:1"
           d="m 246.28116,277.72966 h 2.73846 2.73846 v 0.85598 0.86039 l -0.75384,-0.004 -0.58017,0.004 -0.0115,4.86272 1.34551,-0.002 v 0.85598 0.85582 h -2.73846 -2.73847 v -0.85614 -0.85314 h 1.34536 v -4.86288 l -0.59166,-0.004 h -0.7537 v -0.85582 z"
           id="I-4-0-7"
           inkscape:connector-curvature="0" />
      </g>
    </g>
    <text
       xml:space="preserve"
       style="font-style:normal;font-variant:normal;font-weight:normal;font-stretch:normal;font-size:5.74585438px;line-height:1.25;font-family:'Khmer OS';-inkscape-font-specification:'Khmer OS';letter-spacing:0px;word-spacing:0px;fill:#ff3b17;fill-opacity:1;stroke:none;stroke-width:0.23941059"
       x="50.98597"
       y="267.17126"
       id="name"
       inkscape:label="#text952"><tspan
         sodipodi:role="line"
         x="50.98597"
         y="267.17126"
         id="tspan950"
         style="stroke-width:0.23941059"><tspan
           x="50.98597"
           y="267.17126"
           id="tspan948"
           style="stroke-width:0.23941059">John Doe</tspan></tspan></text>
    <text
       xml:space="preserve"
       style="font-style:normal;font-variant:normal;font-weight:normal;font-stretch:normal;font-size:3.30227542px;line-height:1.25;font-family:'Khmer OS';-inkscape-font-specification:'Khmer OS';letter-spacing:0px;word-spacing:0px;fill:#10294b;fill-opacity:1;stroke:none;stroke-width:0.1375948"
       x="56.426357"
       y="271.90466"
       id="text946"><tspan
         sodipodi:role="line"
         x="56.426357"
         y="271.90466"
         id="tspan944"
         style="stroke-width:0.1375948"><tspan
           x="56.426357"
           y="271.90466"
           id="tspan942"
           style="stroke-width:0.1375948">Manager</tspan></tspan></text>
    <text
       xml:space="preserve"
       style="font-style:normal;font-variant:normal;font-weight:normal;font-stretch:normal;font-size:1.71309149px;line-height:1.25;font-family:'Khmer OS';-inkscape-font-specification:'Khmer OS';letter-spacing:0px;word-spacing:0px;fill:#10294b;fill-opacity:1;stroke:none;stroke-width:0.07137881"
       x="57.897892"
       y="275.71286"
       id="text940"><tspan
         sodipodi:role="line"
         x="57.897892"
         y="275.71286"
         id="tspan938"
         style="stroke-width:0.07137881"><tspan
           x="57.897892"
           y="275.71286"
           id="tspan936"
           style="stroke-width:0.07137881">he / him / his</tspan></tspan></text>
    <rect
       style="opacity:1;fill:none;fill-opacity:1;stroke:#0000f6;stroke-width:0.02533475;stroke-miterlimit:4;stroke-dasharray:none;stroke-dashoffset:39.22031021;stroke-opacity:1"
       id="positioner"
       width="37.69603"
       height="25.041561"
       x="43.929653"
       y="256.84656"
       inkscape:label="#rect837" />
  </g>
</svg>
