<?xml version="1.0" encoding="UTF-8" standalone="no"?>
<!-- Created with Inkscape (http://www.inkscape.org/) -->

<svg
   xmlns:dc="http://purl.org/dc/elements/1.1/"
   xmlns:cc="http://creativecommons.org/ns#"
   xmlns:rdf="http://www.w3.org/1999/02/22-rdf-syntax-ns#"
   xmlns:svg="http://www.w3.org/2000/svg"
   xmlns="http://www.w3.org/2000/svg"
   xmlns:sodipodi="http://sodipodi.sourceforge.net/DTD/sodipodi-0.dtd"
   xmlns:inkscape="http://www.inkscape.org/namespaces/inkscape"
   width="94mm"
   height="60mm"
   viewBox="0 0 93.999997 60.000002"
   version="1.1"
   id="svg2441"
   inkscape:version="0.92.5 (2060ec1f9f, 2020-04-08)"
   sodipodi:docname="onecard.svg">
  <defs
     id="defs2435" />
  <sodipodi:namedview
     id="base"
     pagecolor="#ffffff"
     bordercolor="#666666"
     borderopacity="1.0"
     inkscape:pageopacity="0.0"
     inkscape:pageshadow="2"
     inkscape:zoom="1.1706379"
     inkscape:cx="-153.84106"
     inkscape:cy="341.77563"
     inkscape:document-units="in"
     inkscape:current-layer="layer1"
     showgrid="false"
     inkscape:window-width="1366"
     inkscape:window-height="704"
     inkscape:window-x="0"
     inkscape:window-y="27"
     inkscape:window-maximized="1"
     units="mm" />
  <metadata
     id="metadata2438">
    <rdf:RDF>
      <cc:Work
         rdf:about="">
        <dc:format>image/svg+xml</dc:format>
        <dc:type
           rdf:resource="http://purl.org/dc/dcmitype/StillImage" />
        <dc:title />
      </cc:Work>
    </rdf:RDF>
  </metadata>
  <g
     inkscape:label="Layer 1"
     inkscape:groupmode="layer"
     id="layer1"
     transform="translate(0,-237)">
    <path
       inkscape:connector-curvature="0"
       style="opacity:1;fill:#fffff7;fill-opacity:1;stroke:#ff3b17;stroke-width:0.34735227;stroke-miterlimit:4;stroke-dasharray:none;stroke-opacity:1"
       d="m 3.7030366,237.81708 c -1.6622125,0 -3.0001938,1.33799 -3.0001938,3.00021 v 52.66088 c 0,1.66221 1.3379813,3.0002 3.0001938,3.0002 H 90.624086 c 1.662222,0 3.000203,-1.33799 3.000203,-3.0002 v -52.66088 c 0,-1.66222 -1.337981,-3.00021 -3.000203,-3.00021 z"
       id="path1264-2-9-6"
       onload="console.log(&quot;frefrfres&quot;)" />
    <rect
       y="256.05792"
       x="12.626568"
       height="22.179558"
       width="22.179558"
       id="rect1543-1"
       style="opacity:1;fill:#fffff7;fill-opacity:1;stroke:#ff3b17;stroke-width:0.8233825;stroke-miterlimit:4;stroke-dasharray:none;stroke-dashoffset:39.22031021;stroke-opacity:1" />
    <path
       style="fill:none;stroke:#ff3b17;stroke-width:0.37316054px;stroke-linecap:butt;stroke-linejoin:miter;stroke-opacity:1"
       d="m 47.163567,250.09319 c 0,76.74541 0,0 0,0 z"
       id="path1996"
       inkscape:connector-curvature="0" />
    <path
       style="fill:#10294b;fill-opacity:1;stroke-width:0.069312"
       d="m 13.319547,274.63343 v -2.91109 h 2.945758 2.945767 v 2.91109 2.91111 h -2.945767 -2.945758 z m 4.990468,0.0346 v -2.0447 h -2.04471 -2.044703 v 2.0447 2.0447 h 2.044703 2.04471 z m -3.326975,0 v -1.28227 h 1.282265 1.282274 v 1.28227 1.28227 H 16.265305 14.98304 Z m 4.990459,0.79708 v -2.07935 h 0.415873 0.415873 v -0.38122 -0.38121 h -0.415873 -0.415873 v -0.83175 -0.83174 h -0.831747 -0.831737 v -0.45053 -0.45053 h 0.415864 0.415873 v -0.38121 -0.38121 h -0.415873 -0.415864 v -0.41587 -0.41588 H 17.894143 17.47827 v -0.41587 -0.41588 h -0.831748 -0.831745 v -0.41587 -0.41587 h -0.797082 -0.797093 v 0.38121 0.38123 h 0.415874 0.415873 v 0.41587 0.41587 h 0.415873 0.415873 v 0.41586 0.41587 h 0.415874 0.415862 v 0.86641 0.8664 h -0.86639 -0.866401 v -0.45053 -0.45053 h 0.415863 0.415874 v -0.38121 -0.38121 H 15.398903 14.98304 v -0.41587 -0.41588 h -0.381219 -0.381219 v 1.24762 1.24761 h -0.450527 -0.450528 v -2.11401 -2.11402 h 0.415874 0.415873 v -0.83175 -0.83174 h 0.450527 0.450528 v 0.41587 0.41587 h 1.24762 1.24761 v 0.41588 0.41587 h 0.831745 0.831748 v 0.41587 0.41588 h 0.797081 0.797092 v -0.41588 -0.41587 h 0.831747 0.831736 v -0.38123 -0.3812 h -0.415874 -0.415862 v -0.83175 -0.83175 h -0.797093 -0.797091 v 0.38123 0.38121 h 0.415872 0.415874 v 0.45054 0.45052 h -0.450528 -0.450527 v -0.41588 -0.41587 H 19.59228 19.211072 v 0.41587 0.41588 h -0.450528 -0.450529 v -0.45052 -0.45054 h 0.415864 0.415873 v -0.38121 -0.38123 h -0.415873 -0.415864 v -0.45052 -0.45052 h 1.24761 1.24762 v -0.38123 -0.3812 h -0.415873 -0.415873 v -0.86641 -0.8664 h 0.415873 0.415873 v -0.38121 -0.38123 h -0.415873 -0.415873 v -0.45052 -0.45053 h 1.282274 1.282274 v 0.45053 0.45052 H 22.122173 21.7063 v 0.79709 0.7971 h 0.415873 0.415874 v 0.41587 0.41587 h 0.381208 0.381219 v -0.83174 -0.83175 h 0.831747 0.831746 v -0.41587 -0.41587 h 0.415863 0.415873 v -0.41588 -0.41587 h 0.866401 0.866401 v 0.45053 0.45052 h -0.831747 -0.831736 v 1.24763 1.24762 H 25.44915 25.033276 v 0.3812 0.38123 h 0.797091 0.797083 v -0.83175 -0.83174 h 0.450527 0.450528 v 0.83174 0.83175 h 0.415872 0.415874 v 0.83174 0.83174 h 0.381219 0.381208 v -0.83174 -0.83174 h 0.450528 0.450528 v 0.41586 0.41588 h 0.381218 0.381219 v -0.41588 -0.41586 h 0.450528 0.450528 v 0.45052 0.45052 H 31.271354 30.85548 v 0.83175 0.83175 h -0.450528 -0.450527 v -0.41588 -0.41587 h -0.381219 -0.381208 v 0.41587 0.41588 h -0.831747 -0.831746 v 0.83174 0.83174 h -0.415873 -0.415874 v 0.41588 0.41587 h -0.415863 -0.415873 v 0.41588 0.41587 H 25.44915 25.033276 v 0.38121 0.38121 h 0.797091 0.797083 v -0.41587 -0.41588 h 0.415873 0.415873 v -0.41587 -0.41586 h 0.831746 0.831736 v -0.38122 -0.38122 h -0.415872 -0.415864 v -0.45053 -0.45052 h 1.698138 1.698147 v 0.45052 0.45053 H 31.271354 30.85548 v 0.83175 0.83175 h -0.450528 -0.450527 v -0.41587 -0.41588 h -0.381219 -0.381208 v 0.41588 0.41587 h -0.831747 -0.831746 v 0.38121 0.38121 h 2.079366 2.079356 v 0.45053 0.45053 H 31.271354 30.85548 v 0.79709 0.79708 h 0.381219 0.381219 v -0.41587 -0.41586 h 0.831737 0.831745 v -0.79709 -0.7971 h -0.415872 -0.415873 v -0.41586 -0.41587 h -0.415874 -0.415863 v -0.45053 -0.45053 h 0.415863 0.415874 v -0.83174 -0.83175 h 0.831745 0.831748 v 0.45052 0.45053 h -0.381219 -0.38122 v 0.41588 0.41587 h -0.415862 -0.415874 v 0.38122 0.3812 h 0.797082 0.797093 v 1.69816 1.69814 h -1.212967 -1.212954 v 0.83174 0.83175 H 31.271354 30.85548 v 0.79709 0.79708 h 0.381219 0.381219 v -0.41588 -0.41585 h 0.415863 0.415874 v -0.41588 -0.41587 h 0.831745 0.831748 v 0.8664 0.86639 h -0.381219 -0.38122 v 0.38122 0.38121 h 0.38122 0.381219 v 0.41588 0.41587 h -1.24762 -1.24761 v -0.38121 -0.38123 h -2.044712 -2.044701 v 0.38123 0.38121 H 27.077977 26.62745 v -0.83175 -0.83174 h 0.415873 0.415873 v -0.38121 -0.38122 h -0.797092 -0.797082 v 1.21296 1.21296 h -0.450527 -0.450528 v -1.62883 -1.62883 h -0.381219 -0.381219 v 0.41587 0.41587 h -0.415873 -0.415873 v 0.79709 0.79708 h 0.415873 0.415873 v 0.41588 0.41587 h -0.450527 -0.450528 v -0.38121 -0.38123 h -0.381219 -0.381208 v 0.38123 0.38121 h -0.450528 -0.450527 v -0.38121 -0.38123 h -0.381219 -0.381219 v 0.38123 0.38121 h -0.450528 -0.450527 z m 2.495229,0.45054 v -0.79709 h -0.415874 -0.415862 v -0.45053 -0.45052 h 0.450527 0.450528 v 0.41587 0.41588 h 0.381208 0.381219 v -0.41588 -0.41587 h 0.415873 0.415874 v -1.21297 -1.21296 h -0.831747 -0.831746 v -0.41587 -0.41587 H 22.087519 21.7063 v 0.41587 0.41587 h -0.415873 -0.415873 v 0.38123 0.3812 h 1.247619 1.24761 v 0.45053 0.45053 h -1.24761 -1.247619 v 1.21296 1.21296 h 0.415873 0.415873 v 0.41587 0.41587 h 0.381219 0.381209 z m 9.980927,0.41587 v -0.38122 h -0.38121 -0.381218 v 0.38122 0.38121 h 0.381218 0.38121 z m -2.49523,-1.24761 v -0.79709 H 28.74147 27.528505 v 0.38121 0.38123 h 0.831746 0.831747 v 0.41585 0.41588 h 0.381208 0.381219 z m 3.326975,0.41587 v -0.38122 h -0.381219 -0.381208 v 0.38122 0.38121 h 0.381208 0.381219 z m -6.65395,-2.07937 v -0.79708 h -0.415873 -0.415874 v -0.41587 -0.41588 h -0.381208 -0.381219 v 0.7971 0.79708 h 0.415874 0.415872 v 0.41588 0.41587 h 0.381209 0.381219 z m 3.326975,-1.2476 v -1.21297 H 28.74147 27.528505 v 1.21297 1.21295 h 1.212965 1.212955 z m -1.663483,0 v -0.45053 h 0.450528 0.450528 v 0.45053 0.45052 H 28.74147 28.290942 Z m -3.326975,-0.8318 v -0.38122 h -0.381219 -0.381219 v 0.38122 0.38122 h 0.381219 0.381219 z m -3.326975,-0.83175 v -0.38117 h -0.415874 -0.415873 v -0.45052 -0.45054 h 1.247609 1.24762 v -0.41587 -0.41585 h 1.247619 1.24761 v -0.38123 -0.38121 h -0.831736 -0.831746 v -0.45054 -0.45052 h 1.247609 1.24762 v -0.41587 -0.41588 h 0.415873 0.415873 v -0.3812 -0.38123 H 27.043323 26.62745 v -0.41587 -0.41588 h -1.212955 -1.212966 v 0.38123 0.38121 h 0.831747 0.831746 v 0.45054 0.45052 h -0.866401 -0.8664 v -0.41587 -0.41588 h -0.797093 -0.797081 v 0.38123 0.3812 h 0.415873 0.415863 v 0.45053 0.45053 H 22.95392 22.538047 v 0.41587 0.41588 H 21.7063 20.874554 v 0.41587 0.41587 h -0.831746 -0.831736 v 0.38122 0.3812 h 0.415872 0.415864 v 0.83175 0.83175 h 0.797091 0.797093 z m 1.663482,0 v -0.38122 h -0.381219 -0.381208 v 0.38122 0.38122 h 0.381208 0.381219 z m 0.831747,-0.83174 v -0.38121 h -0.381219 -0.381219 v 0.38121 0.38121 h 0.381219 0.381219 z m -4.990469,-1.66349 v -0.38122 h -0.381208 -0.38122 v 0.38122 0.38122 h 0.38122 0.381208 z m 4.990469,-4.57459 v -0.79708 h -0.381219 -0.381219 v 0.41587 0.41587 H 22.538047 21.7063 v 0.38121 0.38122 h 1.212955 1.212966 z m 3.326975,0.41587 v -0.38121 h -0.381219 -0.381219 v 0.38121 0.38122 h 0.381219 0.381219 z m -5.822204,-1.66349 v -0.38121 h -0.381219 -0.381219 v 0.38121 0.38122 h 0.381219 0.381219 z m 3.326975,0 v -0.38121 h -0.381219 -0.381219 v 0.38121 0.38122 h 0.381219 0.381219 z m 6.653951,3.32699 v -0.45054 h 0.450527 0.450528 v 0.45054 0.45052 h -0.450528 -0.450527 z m 1.663482,-0.7971 v -0.41588 h -0.415872 -0.415873 v -0.45052 -0.45052 h 0.450526 0.450528 v 0.41586 0.41588 h 0.38122 0.381219 v 0.45053 0.45052 H 33.697274 33.2814 Z m -19.961853,-0.8664 v -0.45052 h 2.114021 2.114011 v 0.45052 0.45052 h -2.114011 -2.114021 z m 0,-4.15872 v -2.94575 h 2.945758 2.945767 v 2.94575 2.94577 h -2.945767 -2.945758 z m 4.990468,0 v -2.0447 h -2.04471 -2.044703 v 2.0447 2.04471 h 2.044703 2.04471 z m -3.326975,0 v -1.28227 h 1.282265 1.282274 v 1.28227 1.28227 H 16.265305 14.98304 Z m 13.307902,0 v -2.94575 h 2.911103 2.911103 v 2.94575 2.94577 h -2.911103 -2.911103 z m 4.990458,0 v -2.0447 h -2.044701 -2.044701 v 2.0447 2.04471 h 2.044701 2.044701 z m -3.326975,0 v -1.28227 h 1.282274 1.282274 v 1.28227 1.28227 h -1.282274 -1.282274 z m -6.653951,-1.66348 v -1.28227 h 0.450528 0.450527 v 0.41587 0.41586 h 0.831747 0.831746 v 0.45054 0.45053 H 25.44915 25.033276 v 0.41586 0.41589 h -0.8664 -0.866402 z m -3.326975,0 v -0.45054 h 0.450527 0.450528 v 0.45054 0.45053 h -0.450528 -0.450527 z m 1.663493,0 v -0.45054 h 0.450527 0.450528 v 0.45054 0.45053 h -0.450528 -0.450527 z m 4.990458,-0.83175 v -0.45052 h 0.450527 0.450528 v 0.45052 0.45053 H 27.077977 26.62745 Z"
       id="path2842-3"
       inkscape:connector-curvature="0" />
    <g
       id="g2868-6-3"
       transform="matrix(0.6918625,0,0,0.6918625,-146.43522,69.993842)">
      <g
         id="g2863-7-8"
         transform="matrix(0.54166669,0,0,0.54166669,111.04702,132.27926)">
        <circle
           r="6.7351923"
           cy="281.87411"
           cx="249.01961"
           id="path2859-6-3"
           style="opacity:1;fill:#fffff7;fill-opacity:1;stroke:none;stroke-width:0.82299995;stroke-miterlimit:4;stroke-dasharray:none;stroke-dashoffset:39.22031021;stroke-opacity:1" />
        <path
           inkscape:transform-center-y="9.2440537"
           inkscape:transform-center-x="-10.49916"
           inkscape:label="#rect974-7-67-8-3-4-35-9-8-8-0-7-4"
           style="opacity:1;fill:#ff3b17;fill-opacity:1;stroke:#ff3b17;stroke-width:0.10592641;stroke-miterlimit:4;stroke-dasharray:none;stroke-opacity:1"
           d="m 246.28116,277.72966 h 2.73846 2.73846 v 0.85598 0.86039 l -0.75384,-0.004 -0.58017,0.004 -0.0115,4.86272 1.34551,-0.002 v 0.85598 0.85582 h -2.73846 -2.73847 v -0.85614 -0.85314 h 1.34536 v -4.86288 l -0.59166,-0.004 h -0.7537 v -0.85582 z"
           id="I-4-0-7"
           inkscape:connector-curvature="0" />
      </g>
    </g>
    <text
       xml:space="preserve"
       style="font-style:normal;font-variant:normal;font-weight:normal;font-stretch:normal;font-size:7.01397467px;line-height:1.25;font-family:Kalimati;-inkscape-font-specification:Kalimati;letter-spacing:0px;word-spacing:0px;fill:#ff3b17;fill-opacity:1;stroke:none;stroke-width:0.29224893"
       x="55.656422"
       y="263.90875"
       id="namerel"
       inkscape:label="#text952-relative"
       onload=""
       onclick=""
       onfocusout="console.log(this)"><title
         id="title859">90.631</title><tspan
         sodipodi:role="line"
         x="55.656422"
         y="263.90875"
         id="tspan950"
         style="font-style:normal;font-variant:normal;font-weight:normal;font-stretch:normal;font-family:Kalimati;-inkscape-font-specification:Kalimati;stroke-width:0.29224893"><tspan
           x="55.656422"
           y="263.90875"
           id="tspan948"
           style="font-style:normal;font-variant:normal;font-weight:normal;font-stretch:normal;font-family:Kalimati;-inkscape-font-specification:Kalimati;stroke-width:0.29224893">John Doe</tspan></tspan></text>
    <text
       xml:space="preserve"
       style="font-style:normal;font-variant:normal;font-weight:normal;font-stretch:normal;font-size:4.0310936px;line-height:1.25;font-family:'Khmer OS';-inkscape-font-specification:'Khmer OS';letter-spacing:0px;word-spacing:0px;fill:#10294b;fill-opacity:1;stroke:none;stroke-width:0.16796222"
       x="62.655655"
       y="269.68683"
       id="text946rel"
       inkscape:label="#text946-relative"
       onmouseover=""><tspan
         sodipodi:role="line"
         x="62.655655"
         y="269.68683"
         id="tspan944"
         style="stroke-width:0.16796222"><tspan
           x="62.655655"
           y="269.68683"
           id="tspan942"
           style="stroke-width:0.16796222">Manager</tspan></tspan></text>
    <text
       xml:space="preserve"
       style="font-style:normal;font-variant:normal;font-weight:normal;font-stretch:normal;font-size:2.09117389px;line-height:1.25;font-family:'Khmer OS';-inkscape-font-specification:'Khmer OS';letter-spacing:0px;word-spacing:0px;fill:#10294b;fill-opacity:1;stroke:none;stroke-width:0.08713225"
       x="64.451965"
       y="274.33548"
       id="text940rel"
       inkscape:label="#text940-relative"><tspan
         sodipodi:role="line"
         x="64.451965"
         y="274.33548"
         id="tspan938"
         style="stroke-width:0.08713225"><tspan
           x="64.451965"
           y="274.33548"
           id="tspan936"
           style="stroke-width:0.08713225">he / him / his</tspan></tspan></text>
    <rect
       style="opacity:1;fill:none;fill-opacity:1;stroke:#fffff7;stroke-width:0.03092617;stroke-miterlimit:4;stroke-dasharray:none;stroke-dashoffset:39.22031021;stroke-opacity:1"
       id="positioner"
       width="46.01561"
       height="30.568279"
       x="47.400909"
       y="251.30539"
       inkscape:label="#rect837" />
  </g>
</svg>
